<mxfile host="65bd71144e" scale="5" border="0">
    <diagram name="第 1 页" id="MMQY4GHWlohtOG-HjVAW">
        <mxGraphModel dx="553" dy="785" grid="1" gridSize="10" guides="1" tooltips="1" connect="1" arrows="1" fold="1" page="1" pageScale="1" pageWidth="827" pageHeight="1169" math="0" shadow="0">
            <root>
                <mxCell id="0"/>
                <mxCell id="1" parent="0"/>
                <mxCell id="m_KNvEHkv_iCMNNnLK8O-23" style="edgeStyle=orthogonalEdgeStyle;rounded=0;orthogonalLoop=1;jettySize=auto;html=1;exitX=0.5;exitY=1;exitDx=0;exitDy=0;exitPerimeter=0;entryX=0.5;entryY=0;entryDx=0;entryDy=0;" parent="1" source="m_KNvEHkv_iCMNNnLK8O-7" target="m_KNvEHkv_iCMNNnLK8O-22" edge="1">
                    <mxGeometry relative="1" as="geometry"/>
                </mxCell>
                <mxCell id="m_KNvEHkv_iCMNNnLK8O-7" value="开始" style="strokeWidth=1;html=1;shape=mxgraph.flowchart.terminator;whiteSpace=wrap;" parent="1" vertex="1">
                    <mxGeometry x="180" y="140" width="80" height="40" as="geometry"/>
                </mxCell>
                <mxCell id="m_KNvEHkv_iCMNNnLK8O-14" style="edgeStyle=orthogonalEdgeStyle;rounded=0;orthogonalLoop=1;jettySize=auto;html=1;exitX=0.5;exitY=1;exitDx=0;exitDy=0;exitPerimeter=0;entryX=0.5;entryY=0;entryDx=0;entryDy=0;" parent="1" source="m_KNvEHkv_iCMNNnLK8O-8" target="m_KNvEHkv_iCMNNnLK8O-10" edge="1">
                    <mxGeometry relative="1" as="geometry"/>
                </mxCell>
                <mxCell id="m_KNvEHkv_iCMNNnLK8O-35" value="是" style="edgeLabel;html=1;align=center;verticalAlign=middle;resizable=0;points=[];" parent="m_KNvEHkv_iCMNNnLK8O-14" vertex="1" connectable="0">
                    <mxGeometry x="-0.2413" relative="1" as="geometry">
                        <mxPoint as="offset"/>
                    </mxGeometry>
                </mxCell>
                <mxCell id="4" style="html=1;exitX=1;exitY=0.5;exitDx=0;exitDy=0;exitPerimeter=0;entryX=0.5;entryY=0;entryDx=0;entryDy=0;elbow=vertical;edgeStyle=orthogonalEdgeStyle;rounded=0;curved=0;" edge="1" parent="1" source="m_KNvEHkv_iCMNNnLK8O-8" target="m_KNvEHkv_iCMNNnLK8O-9">
                    <mxGeometry relative="1" as="geometry"/>
                </mxCell>
                <mxCell id="m_KNvEHkv_iCMNNnLK8O-8" value="本地配置&lt;div&gt;文件存在？&lt;/div&gt;" style="strokeWidth=1;html=1;shape=mxgraph.flowchart.decision;whiteSpace=wrap;" parent="1" vertex="1">
                    <mxGeometry x="150" y="275" width="140" height="55" as="geometry"/>
                </mxCell>
                <mxCell id="m_KNvEHkv_iCMNNnLK8O-12" style="edgeStyle=orthogonalEdgeStyle;rounded=0;orthogonalLoop=1;jettySize=auto;html=1;exitX=0.5;exitY=1;exitDx=0;exitDy=0;entryX=1;entryY=0.5;entryDx=0;entryDy=0;" parent="1" source="m_KNvEHkv_iCMNNnLK8O-9" target="m_KNvEHkv_iCMNNnLK8O-10" edge="1">
                    <mxGeometry relative="1" as="geometry"/>
                </mxCell>
                <mxCell id="m_KNvEHkv_iCMNNnLK8O-9" value="创建配置文件" style="rounded=0;whiteSpace=wrap;html=1;" parent="1" vertex="1">
                    <mxGeometry x="320" y="320" width="100" height="40" as="geometry"/>
                </mxCell>
                <mxCell id="m_KNvEHkv_iCMNNnLK8O-10" value="获取本地配置文件句柄，加载参数到内存" style="rounded=0;whiteSpace=wrap;html=1;" parent="1" vertex="1">
                    <mxGeometry x="160" y="360" width="120" height="40" as="geometry"/>
                </mxCell>
                <mxCell id="m_KNvEHkv_iCMNNnLK8O-19" style="edgeStyle=orthogonalEdgeStyle;rounded=0;orthogonalLoop=1;jettySize=auto;html=1;exitX=1;exitY=0.5;exitDx=0;exitDy=0;" parent="1" source="m_KNvEHkv_iCMNNnLK8O-15" edge="1">
                    <mxGeometry relative="1" as="geometry">
                        <mxPoint x="220" y="420" as="targetPoint"/>
                    </mxGeometry>
                </mxCell>
                <mxCell id="m_KNvEHkv_iCMNNnLK8O-15" value="点击更新&lt;div&gt;参数按钮&lt;/div&gt;" style="shape=parallelogram;perimeter=parallelogramPerimeter;whiteSpace=wrap;html=1;fixedSize=1;" parent="1" vertex="1">
                    <mxGeometry x="40" y="400" width="100" height="40" as="geometry"/>
                </mxCell>
                <mxCell id="m_KNvEHkv_iCMNNnLK8O-17" value="&lt;font&gt;检查输入参数&lt;/font&gt;&lt;span style=&quot;background-color: transparent; color: light-dark(rgb(0, 0, 0), rgb(255, 255, 255));&quot;&gt;是&lt;/span&gt;&lt;div&gt;&lt;span style=&quot;background-color: transparent; color: light-dark(rgb(0, 0, 0), rgb(255, 255, 255));&quot;&gt;否为合法数字？&lt;/span&gt;&lt;/div&gt;" style="strokeWidth=1;html=1;shape=mxgraph.flowchart.decision;whiteSpace=wrap;fontSize=12;" parent="1" vertex="1">
                    <mxGeometry x="150" y="440" width="140" height="60" as="geometry"/>
                </mxCell>
                <mxCell id="m_KNvEHkv_iCMNNnLK8O-18" style="edgeStyle=orthogonalEdgeStyle;rounded=0;orthogonalLoop=1;jettySize=auto;html=1;exitX=0.5;exitY=1;exitDx=0;exitDy=0;entryX=0.5;entryY=0;entryDx=0;entryDy=0;entryPerimeter=0;" parent="1" source="m_KNvEHkv_iCMNNnLK8O-10" target="m_KNvEHkv_iCMNNnLK8O-17" edge="1">
                    <mxGeometry relative="1" as="geometry"/>
                </mxCell>
                <mxCell id="m_KNvEHkv_iCMNNnLK8O-20" value="结束" style="strokeWidth=1;html=1;shape=mxgraph.flowchart.terminator;whiteSpace=wrap;" parent="1" vertex="1">
                    <mxGeometry x="450" y="450" width="80" height="40" as="geometry"/>
                </mxCell>
                <mxCell id="m_KNvEHkv_iCMNNnLK8O-22" value="执行软件初始化服务" style="rounded=0;whiteSpace=wrap;html=1;" parent="1" vertex="1">
                    <mxGeometry x="160" y="210" width="120" height="40" as="geometry"/>
                </mxCell>
                <mxCell id="m_KNvEHkv_iCMNNnLK8O-24" style="edgeStyle=orthogonalEdgeStyle;rounded=0;orthogonalLoop=1;jettySize=auto;html=1;exitX=0.5;exitY=1;exitDx=0;exitDy=0;entryX=0.5;entryY=0;entryDx=0;entryDy=0;entryPerimeter=0;" parent="1" source="m_KNvEHkv_iCMNNnLK8O-22" target="m_KNvEHkv_iCMNNnLK8O-8" edge="1">
                    <mxGeometry relative="1" as="geometry"/>
                </mxCell>
                <mxCell id="m_KNvEHkv_iCMNNnLK8O-25" style="edgeStyle=orthogonalEdgeStyle;rounded=0;orthogonalLoop=1;jettySize=auto;html=1;exitX=1;exitY=0.5;exitDx=0;exitDy=0;exitPerimeter=0;entryX=0;entryY=0.5;entryDx=0;entryDy=0;" parent="1" source="m_KNvEHkv_iCMNNnLK8O-17" target="m_KNvEHkv_iCMNNnLK8O-42" edge="1">
                    <mxGeometry relative="1" as="geometry">
                        <mxPoint x="340" y="475" as="targetPoint"/>
                    </mxGeometry>
                </mxCell>
                <mxCell id="m_KNvEHkv_iCMNNnLK8O-36" value="否" style="edgeLabel;html=1;align=center;verticalAlign=middle;resizable=0;points=[];" parent="m_KNvEHkv_iCMNNnLK8O-25" vertex="1" connectable="0">
                    <mxGeometry x="-0.1833" relative="1" as="geometry">
                        <mxPoint as="offset"/>
                    </mxGeometry>
                </mxCell>
                <mxCell id="m_KNvEHkv_iCMNNnLK8O-29" style="edgeStyle=orthogonalEdgeStyle;rounded=0;orthogonalLoop=1;jettySize=auto;html=1;exitX=0.5;exitY=1;exitDx=0;exitDy=0;exitPerimeter=0;entryX=0.5;entryY=0;entryDx=0;entryDy=0;" parent="1" source="m_KNvEHkv_iCMNNnLK8O-26" target="m_KNvEHkv_iCMNNnLK8O-28" edge="1">
                    <mxGeometry relative="1" as="geometry"/>
                </mxCell>
                <mxCell id="m_KNvEHkv_iCMNNnLK8O-39" value="是" style="edgeLabel;html=1;align=center;verticalAlign=middle;resizable=0;points=[];" parent="m_KNvEHkv_iCMNNnLK8O-29" vertex="1" connectable="0">
                    <mxGeometry x="-0.3074" relative="1" as="geometry">
                        <mxPoint as="offset"/>
                    </mxGeometry>
                </mxCell>
                <mxCell id="m_KNvEHkv_iCMNNnLK8O-26" value="&lt;font&gt;检查输入参数&lt;/font&gt;&lt;span style=&quot;background-color: transparent; color: light-dark(rgb(0, 0, 0), rgb(255, 255, 255));&quot;&gt;是&lt;/span&gt;&lt;div&gt;&lt;span style=&quot;background-color: transparent; color: light-dark(rgb(0, 0, 0), rgb(255, 255, 255));&quot;&gt;否符合范围？&lt;/span&gt;&lt;/div&gt;" style="strokeWidth=1;html=1;shape=mxgraph.flowchart.decision;whiteSpace=wrap;fontSize=12;" parent="1" vertex="1">
                    <mxGeometry x="150" y="530" width="140" height="60" as="geometry"/>
                </mxCell>
                <mxCell id="m_KNvEHkv_iCMNNnLK8O-27" style="edgeStyle=orthogonalEdgeStyle;rounded=0;orthogonalLoop=1;jettySize=auto;html=1;exitX=0.5;exitY=1;exitDx=0;exitDy=0;exitPerimeter=0;entryX=0.5;entryY=0;entryDx=0;entryDy=0;entryPerimeter=0;" parent="1" source="m_KNvEHkv_iCMNNnLK8O-17" target="m_KNvEHkv_iCMNNnLK8O-26" edge="1">
                    <mxGeometry relative="1" as="geometry"/>
                </mxCell>
                <mxCell id="m_KNvEHkv_iCMNNnLK8O-38" value="是" style="edgeLabel;html=1;align=center;verticalAlign=middle;resizable=0;points=[];" parent="m_KNvEHkv_iCMNNnLK8O-27" vertex="1" connectable="0">
                    <mxGeometry x="-0.2889" y="1" relative="1" as="geometry">
                        <mxPoint as="offset"/>
                    </mxGeometry>
                </mxCell>
                <mxCell id="m_KNvEHkv_iCMNNnLK8O-28" value="更新内存参数，&lt;div&gt;更新本地参数文件&lt;/div&gt;" style="rounded=0;whiteSpace=wrap;html=1;" parent="1" vertex="1">
                    <mxGeometry x="160" y="620" width="120" height="40" as="geometry"/>
                </mxCell>
                <mxCell id="m_KNvEHkv_iCMNNnLK8O-30" value="结束" style="strokeWidth=1;html=1;shape=mxgraph.flowchart.terminator;whiteSpace=wrap;" parent="1" vertex="1">
                    <mxGeometry x="450" y="540" width="80" height="40" as="geometry"/>
                </mxCell>
                <mxCell id="m_KNvEHkv_iCMNNnLK8O-31" style="edgeStyle=orthogonalEdgeStyle;rounded=0;orthogonalLoop=1;jettySize=auto;html=1;exitX=1;exitY=0.5;exitDx=0;exitDy=0;exitPerimeter=0;entryX=0;entryY=0.5;entryDx=0;entryDy=0;" parent="1" source="m_KNvEHkv_iCMNNnLK8O-26" target="m_KNvEHkv_iCMNNnLK8O-44" edge="1">
                    <mxGeometry relative="1" as="geometry">
                        <mxPoint x="320" y="555" as="targetPoint"/>
                    </mxGeometry>
                </mxCell>
                <mxCell id="m_KNvEHkv_iCMNNnLK8O-37" value="否" style="edgeLabel;html=1;align=center;verticalAlign=middle;resizable=0;points=[];" parent="m_KNvEHkv_iCMNNnLK8O-31" vertex="1" connectable="0">
                    <mxGeometry x="-0.175" relative="1" as="geometry">
                        <mxPoint as="offset"/>
                    </mxGeometry>
                </mxCell>
                <mxCell id="m_KNvEHkv_iCMNNnLK8O-32" value="结束" style="strokeWidth=1;html=1;shape=mxgraph.flowchart.terminator;whiteSpace=wrap;" parent="1" vertex="1">
                    <mxGeometry x="180" y="680" width="80" height="40" as="geometry"/>
                </mxCell>
                <mxCell id="m_KNvEHkv_iCMNNnLK8O-33" style="edgeStyle=orthogonalEdgeStyle;rounded=0;orthogonalLoop=1;jettySize=auto;html=1;exitX=0.5;exitY=1;exitDx=0;exitDy=0;entryX=0.5;entryY=0;entryDx=0;entryDy=0;entryPerimeter=0;" parent="1" source="m_KNvEHkv_iCMNNnLK8O-28" target="m_KNvEHkv_iCMNNnLK8O-32" edge="1">
                    <mxGeometry relative="1" as="geometry"/>
                </mxCell>
                <mxCell id="m_KNvEHkv_iCMNNnLK8O-42" value="弹出错误提示框" style="rounded=0;whiteSpace=wrap;html=1;" parent="1" vertex="1">
                    <mxGeometry x="330" y="450" width="100" height="40" as="geometry"/>
                </mxCell>
                <mxCell id="m_KNvEHkv_iCMNNnLK8O-43" style="edgeStyle=orthogonalEdgeStyle;rounded=0;orthogonalLoop=1;jettySize=auto;html=1;exitX=1;exitY=0.5;exitDx=0;exitDy=0;entryX=0;entryY=0.5;entryDx=0;entryDy=0;entryPerimeter=0;" parent="1" source="m_KNvEHkv_iCMNNnLK8O-42" target="m_KNvEHkv_iCMNNnLK8O-20" edge="1">
                    <mxGeometry relative="1" as="geometry"/>
                </mxCell>
                <mxCell id="m_KNvEHkv_iCMNNnLK8O-44" value="弹出错误提示框" style="rounded=0;whiteSpace=wrap;html=1;" parent="1" vertex="1">
                    <mxGeometry x="330" y="540" width="100" height="40" as="geometry"/>
                </mxCell>
                <mxCell id="m_KNvEHkv_iCMNNnLK8O-45" style="edgeStyle=orthogonalEdgeStyle;rounded=0;orthogonalLoop=1;jettySize=auto;html=1;exitX=1;exitY=0.5;exitDx=0;exitDy=0;entryX=0;entryY=0.5;entryDx=0;entryDy=0;entryPerimeter=0;" parent="1" source="m_KNvEHkv_iCMNNnLK8O-44" target="m_KNvEHkv_iCMNNnLK8O-30" edge="1">
                    <mxGeometry relative="1" as="geometry"/>
                </mxCell>
            </root>
        </mxGraphModel>
    </diagram>
</mxfile>